PathFileType	4	(X/Y/Z)	s06c0403.trc
DataRate	CameraRate	NumFrames	NumMarkers	Units	OrigDataRate	OrigDataStartFrame	OrigNumFrames
200	200	7	48	mm	200	1500	2000
Frame#	Time	racr			lacr			c7			jug			rlel			rdr			llel			ldr			s2			lic			ric			lasi			rasi			rpsi			lpsi			rgt			lgt			rth1			rth2			rth3			rth4			rlfc			rmfc			rsh1			rsh2			rsh3			rsh4			rlmal			rcal			rtoe			rmt5			lth1			lth2			lth4			lth3			llfc			lmfc			llmal			lcal			lmt5			lsh1			lsh2			lsh3			lsh4			ltoe			SBIKE			LBIKE			RBIKE			
		X1	Y1	Z1	X2	Y2	Z2	X3	Y3	Z3	X4	Y4	Z4	X5	Y5	Z5	X6	Y6	Z6	X7	Y7	Z7	X8	Y8	Z8	X9	Y9	Z9	X10	Y10	Z10	X11	Y11	Z11	X12	Y12	Z12	X13	Y13	Z13	X14	Y14	Z14	X15	Y15	Z15	X16	Y16	Z16	X17	Y17	Z17	X18	Y18	Z18	X19	Y19	Z19	X20	Y20	Z20	X21	Y21	Z21	X22	Y22	Z22	X23	Y23	Z23	X24	Y24	Z24	X25	Y25	Z25	X26	Y26	Z26	X27	Y27	Z27	X28	Y28	Z28	X29	Y29	Z29	X30	Y30	Z30	X31	Y31	Z31	X32	Y32	Z32	X33	Y33	Z33	X34	Y34	Z34	X35	Y35	Z35	X36	Y36	Z36	X37	Y37	Z37	X38	Y38	Z38	X39	Y39	Z39	X40	Y40	Z40	X41	Y41	Z41	X42	Y42	Z42	X43	Y43	Z43	X44	Y44	Z44	X45	Y45	Z45	X46	Y46	Z46	X47	Y47	Z47	X48	Y48	Z48	
1500	7.5000	784.193775	1257.342635	-94.930030	815.471011	1180.230402	-409.543134	826.020389	1306.649487	-258.625153	767.820239	1152.722930	-243.247588	591.300995	1123.861111	64.999188	696.067439	949.806341	-24.014644	577.429961	1098.321385	-541.919381	679.109067	943.932548	-425.062229	244.055818	1207.971159	-271.166559	397.273229	1112.354548	-427.600566	380.190267	1176.070593	-104.683094	407.191233	1067.042584	-378.827683	400.003893	1122.631072	-133.544502	282.473033	1242.419149	-245.944300	285.130196	1230.894029	-303.799125	348.532513	1111.096279	-53.630462	339.786350	1043.612412	-442.226450	433.387376	1010.609495	-47.368802	497.723005	950.017726	-49.692848	525.859528	866.049276	-48.772038	525.742805	966.170380	-73.850832	539.577111	764.245475	-61.775869	519.254489	740.716667	-169.329261	439.636707	696.344071	-34.072711	373.523238	641.686257	-52.414334	288.825249	620.773041	-51.248254	386.616593	622.778243	-85.983201	208.606592	594.119594	-53.876174	162.882841	638.063523	-103.767500	213.775669	365.452937	-97.965614	170.610207	456.401704	-31.242274	338.532805	916.520435	-455.397350	371.751041	837.163378	-444.471481	407.719124	842.697356	-436.147779	360.054077	749.291090	-431.775078	356.963601	632.330265	-407.235431	358.545038	618.487408	-293.631150	237.456193	282.255958	-373.535851	168.206394	287.036791	-323.627430	323.955835	168.196108	-400.440179	323.028329	526.242643	-420.717764	317.897661	442.493056	-398.526210	270.200867	368.563372	-392.015266	345.877283	439.012762	-369.997583	405.193524	135.202333	-344.385758	-203.735520	865.212927	-212.427629	-50.892387	80.097969	-411.539476	-50.873400	80.378380	-14.060016	
1501	7.5050	783.250098	1257.316033	-92.594987	814.861992	1181.536225	-408.201356	825.208406	1306.788470	-256.693153	766.857563	1152.926009	-241.478365	590.096723	1123.514778	66.416415	696.398444	949.016687	-24.462928	578.174065	1098.544326	-542.406163	679.587932	943.943870	-425.632025	243.700007	1205.769455	-273.805706	398.606829	1110.027780	-427.162161	378.207780	1177.798947	-105.752117	408.434682	1065.358747	-378.281586	399.223104	1124.242890	-133.530627	281.744623	1240.733238	-249.506379	285.213376	1228.555029	-306.939564	347.393816	1113.620173	-54.302779	341.211417	1040.069275	-442.177055	434.835918	1014.553934	-46.981886	502.342518	954.785413	-51.277526	530.966917	872.550970	-48.350687	528.491556	972.718430	-73.057511	547.576883	771.378090	-61.675111	528.134069	747.291926	-169.656612	447.995883	703.152626	-34.247650	381.937553	648.272409	-52.738398	297.181843	627.500759	-51.487564	395.293560	629.258985	-85.898026	216.632820	600.115501	-54.135932	169.359762	643.340769	-104.590571	224.543666	371.633231	-98.201525	180.423910	461.947359	-31.569749	336.957367	913.250694	-454.922555	368.417360	833.043636	-443.712973	403.922971	837.883838	-435.435817	354.395902	745.569511	-430.992619	349.398792	629.228776	-406.613018	350.431132	615.105948	-292.879365	231.263341	278.986783	-373.154751	163.056196	285.688115	-323.369484	315.392868	162.287202	-400.232102	315.559863	523.120098	-420.238526	310.808964	439.271225	-398.287265	263.359260	365.176496	-391.814542	338.892597	435.700027	-369.791816	395.626257	126.867282	-344.145046	-203.775248	865.183743	-212.449140	-50.913551	80.095765	-411.508634	-50.937180	80.612654	-13.875121	
1502	7.5100	782.519927	1257.496697	-89.960775	814.266476	1182.898219	-406.925839	824.500996	1306.643101	-254.766750	765.788044	1152.976225	-239.207690	588.952455	1122.841016	67.365668	696.451176	949.217518	-24.098389	578.914356	1098.806842	-542.944950	680.246912	943.953770	-426.244819	243.358650	1203.663680	-276.829138	400.139900	1107.937171	-426.497050	376.277284	1179.711542	-106.666924	409.792247	1063.606844	-377.648168	398.548359	1126.127513	-133.396448	280.966010	1239.181893	-252.763310	285.279601	1226.677297	-310.179521	346.112434	1116.101038	-54.886291	342.836268	1036.719775	-442.055548	435.821288	1018.237593	-47.063306	506.204544	959.655542	-52.026893	535.630324	878.839441	-47.877611	530.855692	979.236022	-71.902628	554.890891	779.292542	-61.379127	536.683415	754.126586	-170.174751	456.257692	709.851127	-34.710128	390.328815	654.854024	-53.057897	305.611719	633.916733	-51.758315	403.720362	635.791010	-86.132098	224.520885	605.657863	-54.483509	177.262853	648.536489	-104.394863	236.502411	378.193212	-97.340028	190.268424	467.099217	-31.961822	335.486505	910.403812	-454.460658	364.967034	829.469820	-443.067400	400.514330	833.498033	-434.569284	348.851579	742.316267	-430.222491	342.024213	626.581411	-405.981217	342.967493	612.532250	-292.152355	225.151259	276.347747	-372.710987	158.029529	285.061598	-323.112683	306.605228	156.952395	-400.056171	308.221030	520.594280	-419.713026	303.862096	436.595773	-398.069629	256.670086	362.373111	-391.508466	332.114457	433.048874	-369.829212	385.725422	119.093712	-344.095058	-203.826719	865.189324	-212.452915	-50.920830	80.098163	-411.513561	-50.949867	80.631133	-13.851201	
1503	7.5150	781.697334	1257.134392	-87.722377	813.653906	1184.248760	-405.743384	823.986851	1306.387835	-252.830560	764.582593	1152.982812	-237.543063	587.587175	1122.032107	68.258548	696.249361	949.742767	-23.438624	579.653155	1099.110267	-543.413669	680.919886	943.929750	-426.903747	243.102976	1201.874211	-279.699892	401.884196	1106.229519	-425.679327	374.345389	1181.746201	-107.950908	411.099473	1061.854436	-376.866454	397.833541	1128.180339	-133.659183	280.489832	1237.698476	-255.822774	285.604911	1224.922373	-313.145983	344.668736	1118.298110	-55.508551	344.539213	1033.677647	-441.906982	436.145372	1022.233875	-45.725156	508.357922	965.442653	-51.746942	538.852420	886.111646	-46.186547	532.545778	985.848548	-71.297707	562.097380	786.782856	-61.493048	544.938080	761.105380	-170.689570	464.282358	716.653161	-35.122846	398.578620	661.261922	-53.330862	314.069644	639.874548	-52.189441	412.132042	642.155954	-86.328373	232.657683	610.452984	-54.979940	184.142875	652.844783	-104.790009	247.320097	382.961371	-98.558054	200.396901	471.683870	-32.310225	334.024474	908.040994	-454.088121	361.654067	826.482310	-442.489771	397.392088	829.431510	-433.340260	343.545429	739.722786	-429.516757	334.974132	624.550721	-405.563684	336.018339	610.622540	-291.433648	219.198314	274.456172	-372.291743	153.109798	285.041864	-322.807764	297.636388	152.193279	-399.847052	301.119813	518.545093	-419.207190	297.137875	434.464753	-397.947659	250.239900	360.092761	-391.220148	325.487313	431.044635	-369.781177	375.548372	111.856883	-344.097332	-203.857433	865.201884	-212.529493	-50.913105	80.091484	-411.530080	-50.945049	80.615221	-13.876461	
1504	7.5200	781.262025	1256.818712	-84.925065	813.129128	1185.560408	-404.610307	823.589656	1306.023109	-250.876452	763.651653	1152.861502	-235.465211	586.243003	1121.419445	69.132974	696.066328	950.410991	-22.693476	580.350602	1099.400781	-543.729069	681.615615	943.943231	-427.559708	243.243742	1200.717433	-282.734333	403.865315	1104.777895	-424.706225	372.457493	1183.601005	-108.967003	412.140433	1059.932367	-376.151131	397.143972	1130.170205	-133.823289	280.001823	1236.447306	-258.246627	286.008811	1223.509048	-315.834154	343.229562	1120.283147	-56.253476	346.316672	1030.955554	-441.789438	435.649700	1026.365852	-44.208013	510.274512	971.006774	-51.135745	543.135770	892.949340	-45.635192	533.800882	992.401826	-70.854758	569.167362	794.185535	-61.837730	552.778092	768.232601	-171.471789	471.815713	723.245660	-35.433284	406.575503	667.520246	-53.765037	322.317358	645.710489	-52.502880	420.258212	648.138998	-86.634169	240.331206	614.888070	-55.461398	190.877942	656.451280	-105.193748	259.045011	387.650883	-98.906375	210.454329	475.531487	-32.761631	332.701337	906.202631	-453.786023	358.382103	824.140235	-442.036328	394.232837	826.323293	-432.630714	338.537727	737.731845	-428.927002	328.298682	622.886913	-405.112145	329.349079	609.293946	-290.830998	213.500321	273.163070	-371.944961	148.425592	285.734267	-322.508599	288.493683	147.989592	-399.618214	294.277505	517.113614	-418.861566	290.718394	432.951658	-397.872875	244.103924	358.337626	-390.825227	319.068443	429.623162	-370.012554	365.056811	105.180584	-344.173101	-203.911085	865.200387	-212.553552	-50.910617	80.073634	-411.554542	-50.945995	80.649334	-13.866838	
1505	7.5250	780.438802	1255.330229	-84.074119	812.600502	1186.938347	-403.558313	823.303483	1305.412966	-248.860396	762.360809	1152.528966	-234.934759	584.940932	1120.782651	69.929843	695.797214	950.965848	-22.162696	581.102902	1099.670880	-543.774823	682.448983	943.963456	-428.157787	243.567412	1199.552221	-285.729177	406.014836	1103.511027	-423.575817	370.633087	1185.415550	-110.048614	412.943471	1057.832506	-375.551423	396.556184	1132.197458	-134.092670	279.766008	1235.726142	-261.328149	286.505027	1222.573884	-318.466539	341.829373	1122.088776	-57.103591	347.979173	1028.524948	-441.673778	435.909754	1029.857164	-43.555236	511.763503	976.480642	-50.665837	547.035004	899.479015	-45.333680	536.176575	998.925661	-70.073295	575.743520	801.143127	-62.054804	559.927300	774.986433	-172.606104	479.256257	729.954615	-35.934807	414.489806	673.800178	-54.096655	330.372560	651.332899	-52.819821	428.594811	654.311468	-86.581264	248.194501	618.795363	-55.863493	197.438910	659.328270	-105.523992	271.083517	392.115806	-99.289934	220.928771	478.930736	-33.114426	331.461460	904.920296	-453.654916	355.508199	822.336048	-441.639147	391.543496	823.861613	-431.942571	333.889725	736.383958	-428.638900	322.088414	621.680830	-404.610292	323.089077	608.329848	-290.181122	208.056888	272.429107	-371.595153	144.093667	287.057528	-322.240296	279.140169	144.613246	-399.894928	287.871067	516.118742	-418.643118	284.711445	431.887629	-397.886934	238.267592	357.137093	-390.593523	313.169774	428.630458	-370.101026	354.180736	98.811774	-344.249570	-203.965386	865.189774	-212.559648	-50.934853	80.109953	-411.546455	-50.946648	80.643899	-13.881706	
1506	7.5300	779.790084	1254.101764	-82.212151	812.153302	1188.343489	-402.631233	823.123911	1304.635070	-246.956722	761.110683	1152.137297	-233.795781	583.519179	1119.914542	70.686794	695.503916	951.218732	-22.031340	581.809837	1100.109168	-543.754954	683.195410	943.865495	-428.744633	243.978982	1198.991284	-288.529874	408.049573	1102.340705	-422.310257	372.356303	1189.060466	-105.842695	413.637706	1055.727066	-374.906641	401.070654	1136.832195	-128.868371	279.862349	1236.425057	-265.688798	287.009057	1221.957700	-320.797480	340.402726	1124.472397	-57.450018	349.564407	1026.596588	-441.552619	436.123918	1033.007619	-43.725475	512.355903	982.288501	-49.888192	550.743435	905.661735	-45.492754	535.774111	1004.351111	-70.219527	581.665722	808.918934	-62.567887	567.385469	782.136540	-173.402170	486.320035	736.537205	-36.493276	422.089998	679.656790	-54.514812	338.174918	656.491187	-53.158387	436.503575	659.968750	-86.820740	255.760369	622.185637	-56.394045	203.809133	661.513446	-105.893041	283.285530	396.062753	-99.373334	231.319808	481.605401	-33.515654	330.394202	904.031821	-453.503161	352.919341	821.056990	-441.305412	388.899140	821.942152	-431.454341	329.774370	735.480645	-428.440216	316.372989	620.966761	-404.271183	316.429198	608.226591	-289.776851	202.854165	272.214075	-371.380740	140.140725	288.988477	-322.007116	269.807563	141.613780	-399.932477	281.939373	515.576051	-418.489151	279.011663	431.248741	-397.900822	232.776575	356.363971	-390.428544	307.569548	427.983548	-370.210007	342.388527	91.884538	-342.795740	-204.003505	865.216137	-212.553284	-50.941916	80.106524	-411.530637	-50.927557	80.636243	-13.878701	
